<?xml version="1.0" standalone="no"?>
<!DOCTYPE svg PUBLIC "-//W3C//DTD SVG 20010904//EN"
 "http://www.w3.org/TR/2001/REC-SVG-20010904/DTD/svg10.dtd">
<svg version="1.0" xmlns="http://www.w3.org/2000/svg"
 width="400.000000pt" height="400.000000pt" viewBox="0 0 400.000000 400.000000"
 preserveAspectRatio="xMidYMid meet">
<metadata>
Created by potrace 1.11, written by Peter Selinger 2001-2013
</metadata>
<g transform="translate(0.000000,400.000000) scale(0.100000,-0.100000)"
fill="#000000" stroke="none">
<path d="M3229 3422 c-26 -15 -60 -38 -75 -52 -156 -136 -746 -910 -1085
-1422 -212 -320 -284 -429 -295 -449 -27 -48 -26 -22 6 108 108 441 319 938
605 1423 98 165 113 225 75 287 -42 70 -114 79 -192 25 -177 -122 -810 -959
-1088 -1437 -238 -409 -350 -629 -501 -980 -113 -266 -127 -321 -88 -349 33
-23 69 -20 115 10 52 33 90 92 144 219 255 601 496 1059 804 1530 87 132 216
312 247 345 8 8 30 35 50 60 20 25 60 70 89 100 l52 55 -37 -68 c-336 -629
-519 -1117 -530 -1416 -4 -108 18 -171 70 -195 107 -51 223 27 372 253 42 64
84 128 94 143 11 15 19 29 19 32 0 15 296 468 438 671 171 244 371 499 522
665 l40 45 -26 -50 c-15 -27 -34 -63 -44 -80 -25 -42 -92 -165 -182 -330 -97
-180 -345 -684 -405 -825 -208 -485 -286 -801 -239 -963 35 -121 135 -143 203
-45 20 29 27 51 26 81 -5 206 -4 226 15 312 56 242 235 703 426 1097 65 135
224 428 381 703 192 338 219 409 180 469 -40 61 -113 72 -186 28z"/>
</g>
</svg>
